0
SECTION
2
HEADER
9
$INSUNITS
70
4
0
ENDSEC
0
SECTION
2
TABLES
0
TABLE
2
LTYPE
0
LTYPE
72
65
70
64
2
CONTINUOUS
3
______
73
0
40
0
0
ENDTAB
0
TABLE
2
LAYER
0
ENDTAB
0
ENDSEC
0
SECTION
2
ENTITIES
0
LINE
8
0
10
-9.3544715
20
-10.0183195
11
6.4024525
21
-7.2399487
0
ARC
8
0
10
6.2288044
20
-6.2551409
40
1
50
280
51
10
0
LINE
8
0
10
4.4352412
20
9.6754313
11
7.2136121
21
-6.0814927
0
LINE
8
0
10
-16.0696691
20
22.3066881
11
-10.5129274
21
-9.2071599
0
ARC
8
0
10
-9.5281197
20
-9.0335118
40
1
50
190
51
280
0
ARC
8
0
10
-15.0848614
20
22.4803363
40
1
50
189.9743744
51
190
0
LINE
8
0
10
5.420049
20
9.8490795
11
4.4352412
21
9.6754313
0
LINE
8
0
10
-18.2105285
20
40.2068759
11
23.5034643
21
47.5621783
0
ARC
8
0
10
-18.0368804
20
39.2220681
40
1
50
100
51
190
0
LINE
8
0
10
-19.0216881
20
39.0484199
11
-16.0697467
21
22.3071286
0
LINE
8
0
10
-16.0696692
20
22.3066881
11
-16.0697467
21
22.3071286
0
LINE
8
0
10
-18.5578249
20
42.1764914
11
22.8041007
21
49.4697149
0
LINE
8
0
10
-21.5098439
20
58.9182232
11
19.8520817
21
66.2114467
0
ARC
8
0
10
-21.3361958
20
57.9334154
40
1
50
100
51
190
0
LINE
8
0
10
-22.3210035
20
57.7597672
11
-19.7162808
21
42.987651
0
ARC
8
0
10
-18.7314731
20
43.1612991
40
1
50
190
51
280
0
LINE
8
0
10
9.3568758
20
-6.7190041
11
25.1137998
21
-3.9406333
0
ARC
8
0
10
24.9401517
20
-2.9558255
40
1
50
280
51
10
0
LINE
8
0
10
24.54793
20
5.0273447
11
25.9249594
21
-2.7821773
0
LINE
8
0
10
5.420049
20
9.8490795
11
8.1984199
21
-5.9078445
0
ARC
8
0
10
9.1832276
20
-5.7341964
40
1
50
190
51
280
0
LINE
8
0
10
19.8520817
20
66.2114467
11
22.8041007
21
49.4697149
0
LINE
8
0
10
23.5034643
20
47.5621783
11
23.5034643
21
64.7557425
0
LINE
8
0
10
24.5034643
20
65.7557425
11
42.5034643
21
65.7557425
0
ARC
8
0
10
24.5034643
20
64.7557425
40
1
50
90
51
180
0
LINE
8
0
10
24.5034643
20
67.7557425
11
42.5034643
21
67.7557425
0
LINE
8
0
10
24.5034643
20
84.7557425
11
42.5034643
21
84.7557425
0
ARC
8
0
10
24.5034643
20
83.7557425
40
1
50
90
51
180
0
LINE
8
0
10
23.5034643
20
83.7557425
11
23.5034643
21
68.7557425
0
ARC
8
0
10
24.5034643
20
68.7557425
40
1
50
180
51
270
0
LINE
8
0
10
47.5034643
20
73.4224092
11
47.5034643
21
71.4224092
0
LINE
8
0
10
60.5034643
20
65.7557426
11
60.5034643
21
67.7557426
0
LINE
8
0
10
55.5034643
20
71.4224092
11
47.5034643
21
71.4224092
0
LINE
8
0
10
42.5034643
20
67.7557425
11
42.5034643
21
65.7557425
0
LINE
8
0
10
47.5034643
20
73.4224092
11
55.5034643
21
73.4224092
0
LINE
8
0
10
60.5034643
20
84.7557426
11
60.5034643
21
89.4224092
0
ARC
8
0
10
59.5034643
20
89.4224092
40
1
50
0
51
90
0
LINE
8
0
10
59.5034643
20
90.4224092
11
43.5034643
21
90.4224092
0
ARC
8
0
10
43.5034643
20
89.4224092
40
1
50
90
51
180
0
LINE
8
0
10
42.5034643
20
89.4224092
11
42.5034643
21
84.7557425
0
LINE
8
0
10
60.5034643
20
65.7557426
11
75.5034643
21
65.7557426
0
LINE
8
0
10
60.5034643
20
67.7557426
11
75.5034643
21
67.7557426
0
LINE
8
0
10
79.5034643
20
81.9224093
11
79.5034643
21
83.7557426
0
ARC
8
0
10
78.5034643
20
83.7557426
40
1
50
0
51
90
0
LINE
8
0
10
60.5034643
20
84.7557426
11
78.5034643
21
84.7557426
0
LINE
8
0
10
55.5034643
20
71.4224092
11
55.5034643
21
73.4224092
0
LINE
8
0
10
117.5034643
20
15.5923303
11
117.5034643
21
28.9224093
0
LINE
8
0
10
117.5034643
20
-3.1650943
11
117.5034643
21
-5.3718502
0
LINE
8
0
10
98.5034643
20
45.9224093
11
125.5034643
21
45.9224093
0
LINE
8
0
10
125.5034643
20
28.9224093
11
125.5034643
21
45.9224093
0
LINE
8
0
10
125.5034643
20
28.9224093
11
117.5034643
21
28.9224093
0
LINE
8
0
10
98.5034643
20
45.9224093
11
98.5034643
21
80.9224093
0
ARC
8
0
10
97.5034643
20
80.9224093
40
1
50
0
51
90
0
LINE
8
0
10
79.5034643
20
81.9224093
11
97.5034643
21
81.9224093
0
LINE
8
0
10
75.5034643
20
65.7557426
11
75.5034643
21
67.7557426
0
LINE
8
0
10
24.54793
20
5.0273447
11
96.0813428
21
-14.1399755
0
LINE
8
0
10
96.0813428
20
-14.1399755
11
111.5678665
21
-21.3614601
0
ARC
8
0
10
111.9904847
20
-20.4551523
40
1
50
245
51
272.2532846
0
LINE
8
0
10
117.9337567
20
-5.5724988
11
117.5034643
21
-5.3718502
0
LINE
8
0
10
117.5034643
20
-3.1650943
11
119.5976135
21
-4.1416121
0
ARC
8
0
10
120.0202317
20
-3.2353043
40
1
50
245
51
294.5148708
0
LINE
8
0
10
124.2203638
20
3.4057065
11
127.2658134
21
9.9366942
0
ARC
8
0
10
126.3595057
20
10.3593125
40
1
50
335
51
65
0
LINE
8
0
10
117.5034643
20
15.5923303
11
126.7821239
21
11.2656203
0
LINE
8
0
10
112.0298018
20
-21.4543791
11
126.5507171
21
-31.6220335
0
ARC
8
0
10
127.1242936
20
-30.8028814
40
1
50
235
51
325
0
LINE
8
0
10
127.9434456
20
-31.3764579
11
136.5470922
21
-19.0891772
0
ARC
8
0
10
135.7279401
20
-18.5156008
40
1
50
325
51
55
0
LINE
8
0
10
118.2801716
20
-5.0777671
11
136.3015166
21
-17.6964487
0
LINE
8
0
10
117.9337567
20
-5.5724988
11
118.2801716
21
-5.0777671
0
LINE
8
0
10
120.4351611
20
-4.1451579
11
137.4486694
21
-16.0581447
0
ARC
8
0
10
138.0222459
20
-15.2389926
40
1
50
235
51
325
0
LINE
8
0
10
138.8413979
20
-15.8125691
11
147.4450445
21
-3.5252884
0
ARC
8
0
10
146.6258924
20
-2.951712
40
1
50
325
51
55
0
LINE
8
0
10
129.1781239
20
10.4861217
11
147.1994689
21
-2.1325599
0
LINE
8
0
10
124.2203638
20
3.4057065
11
129.1781239
21
10.4861217
0
ENDSEC
0
EOF