0
SECTION
2
HEADER
9
$INSUNITS
70
4
0
ENDSEC
0
SECTION
2
TABLES
0
TABLE
2
LTYPE
0
LTYPE
72
65
70
64
2
CONTINUOUS
3
______
73
0
40
0
0
ENDTAB
0
TABLE
2
LAYER
0
ENDTAB
0
ENDSEC
0
SECTION
2
ENTITIES
0
LINE
8
0
10
-9.3544715
20
-10.0183195
11
6.4024525
21
-7.2399487
0
ARC
8
0
10
6.2288044
20
-6.2551409
40
1
50
280
51
10
0
LINE
8
0
10
4.6088894
20
8.6906235
11
7.2136121
21
-6.0814927
0
LINE
8
0
10
-16.0696691
20
22.3066881
11
-10.5129274
21
-9.2071599
0
ARC
8
0
10
-9.5281197
20
-9.0335118
40
1
50
190
51
280
0
ARC
8
0
10
-15.0848614
20
22.4803363
40
1
50
189.9743744
51
190
0
LINE
8
0
10
5.420049
20
9.8490795
11
5.420049
21
9.8490795
0
LINE
8
0
10
-18.2105285
20
40.2068759
11
21.0244089
21
47.1250539
0
ARC
8
0
10
-18.0368804
20
39.2220681
40
1
50
100
51
190
0
LINE
8
0
10
-19.0216881
20
39.0484199
11
-16.0697467
21
22.3071286
0
LINE
8
0
10
-16.0696692
20
22.3066881
11
-16.0697467
21
22.3071286
0
LINE
8
0
10
-18.5578249
20
42.1764914
11
19.8496775
21
48.9487704
0
LINE
8
0
10
-21.5098439
20
58.9182232
11
16.8976583
21
65.6905021
0
ARC
8
0
10
-21.3361958
20
57.9334154
40
1
50
100
51
190
0
LINE
8
0
10
-22.3210035
20
57.7597672
11
-19.7162808
21
42.987651
0
ARC
8
0
10
-18.7314731
20
43.1612991
40
1
50
190
51
280
0
LINE
8
0
10
9.3568758
20
-6.7190041
11
25.1137998
21
-3.9406333
0
ARC
8
0
10
24.9401517
20
-2.9558255
40
1
50
280
51
10
0
LINE
8
0
10
25.3656491
20
0.389829
11
25.9249594
21
-2.7821773
0
LINE
8
0
10
5.420049
20
9.8490795
11
8.1984199
21
-5.9078445
0
ARC
8
0
10
9.1832276
20
-5.7341964
40
1
50
190
51
280
0
LINE
8
0
10
20.3730262
20
63.2570234
11
22.2831562
21
52.4241382
0
LINE
8
0
10
23.5034643
20
50.0794772
11
23.5034643
21
64.7557425
0
LINE
8
0
10
24.5034643
20
65.7557425
11
42.5034643
21
65.7557425
0
ARC
8
0
10
24.5034643
20
64.7557425
40
1
50
90
51
180
0
LINE
8
0
10
24.5034643
20
67.7557425
11
41.5034643
21
67.7557425
0
LINE
8
0
10
24.5034643
20
84.7557425
11
39.5034643
21
84.7557425
0
ARC
8
0
10
24.5034643
20
83.7557425
40
1
50
90
51
180
0
LINE
8
0
10
23.5034643
20
83.7557425
11
23.5034643
21
68.7557425
0
ARC
8
0
10
24.5034643
20
68.7557425
40
1
50
180
51
270
0
LINE
8
0
10
47.5034643
20
73.4224092
11
47.5034643
21
72.4224092
0
LINE
8
0
10
60.5034643
20
65.7557426
11
60.5034643
21
66.7557426
0
LINE
8
0
10
54.5034643
20
71.4224092
11
48.5034643
21
71.4224092
0
LINE
8
0
10
42.5034643
20
66.7557425
11
42.5034643
21
65.7557425
0
LINE
8
0
10
47.5034643
20
73.4224092
11
55.5034643
21
73.4224092
0
LINE
8
0
10
60.5034643
20
87.7557426
11
60.5034643
21
89.4224092
0
ARC
8
0
10
59.5034643
20
89.4224092
40
1
50
0
51
90
0
LINE
8
0
10
59.5034643
20
90.4224092
11
43.5034643
21
90.4224092
0
ARC
8
0
10
43.5034643
20
89.4224092
40
1
50
90
51
180
0
LINE
8
0
10
42.5034643
20
89.4224092
11
42.5034643
21
87.7557425
0
LINE
8
0
10
60.5034643
20
65.7557426
11
75.5034643
21
65.7557426
0
LINE
8
0
10
61.5034643
20
67.7557426
11
74.5034643
21
67.7557426
0
LINE
8
0
10
79.5034643
20
82.9224093
11
79.5034643
21
83.7557426
0
ARC
8
0
10
78.5034643
20
83.7557426
40
1
50
0
51
90
0
LINE
8
0
10
63.5034643
20
84.7557426
11
78.5034643
21
84.7557426
0
LINE
8
0
10
55.5034643
20
72.4224092
11
55.5034643
21
73.4224092
0
LINE
8
0
10
117.5034643
20
17.5035412
11
117.5034643
21
25.9224093
0
LINE
8
0
10
117.5034643
20
-4.7347799
11
117.5034643
21
-5.3718502
0
LINE
8
0
10
101.5034643
20
45.9224093
11
122.5034643
21
45.9224093
0
LINE
8
0
10
125.5034643
20
31.9224093
11
125.5034643
21
42.9224093
0
LINE
8
0
10
122.5034643
20
28.9224093
11
120.5034643
21
28.9224093
0
LINE
8
0
10
98.5034643
20
48.9224093
11
98.5034643
21
80.9224093
0
ARC
8
0
10
97.5034643
20
80.9224093
40
1
50
0
51
90
0
LINE
8
0
10
80.5034643
20
81.9224093
11
97.5034643
21
81.9224093
0
LINE
8
0
10
75.5034643
20
65.7557426
11
75.5034643
21
66.7557426
0
LINE
8
0
10
29.0965294
20
3.8085511
11
95.8278199
21
-14.0720442
0
LINE
8
0
10
96.3192177
20
-14.2508984
11
111.5678665
21
-21.3614601
0
ARC
8
0
10
111.9904847
20
-20.4551523
40
1
50
245
51
272.2532846
0
LINE
8
0
10
117.9337567
20
-5.5724988
11
117.5034643
21
-5.3718502
0
LINE
8
0
10
118.9260826
20
-3.8284721
11
119.5976135
21
-4.1416121
0
ARC
8
0
10
120.0202317
20
-3.2353043
40
1
50
245
51
294.5148708
0
LINE
8
0
10
124.2203638
20
3.4057065
11
127.2658134
21
9.9366942
0
ARC
8
0
10
126.3595057
20
10.3593125
40
1
50
335
51
65
0
LINE
8
0
10
119.2356094
20
14.7846178
11
126.7821239
21
11.2656203
0
LINE
8
0
10
112.0298018
20
-21.4543791
11
126.5507171
21
-31.6220335
0
ARC
8
0
10
127.1242936
20
-30.8028814
40
1
50
235
51
325
0
LINE
8
0
10
127.9434456
20
-31.3764579
11
136.5470922
21
-19.0891772
0
ARC
8
0
10
135.7279401
20
-18.5156008
40
1
50
325
51
55
0
LINE
8
0
10
118.2801716
20
-5.0777671
11
136.3015166
21
-17.6964487
0
LINE
8
0
10
117.9337567
20
-5.5724988
11
118.2801716
21
-5.0777671
0
LINE
8
0
10
120.4351611
20
-4.1451579
11
137.4486694
21
-16.0581447
0
ARC
8
0
10
138.0222459
20
-15.2389926
40
1
50
235
51
325
0
LINE
8
0
10
138.8413979
20
-15.8125691
11
147.4450445
21
-3.5252884
0
ARC
8
0
10
146.6258924
20
-2.951712
40
1
50
325
51
55
0
LINE
8
0
10
131.63558
20
8.7653924
11
147.1994689
21
-2.1325599
0
LINE
8
0
10
124.2203638
20
3.4057065
11
127.4573946
21
8.0286656
0
ARC
8
0
10
28.3200724
20
0.9107736
40
3
50
75.0000021
51
190.0000013
0
ARC
8
0
10
95.0513628
20
-16.9698217
40
3
50
64.9999983
51
75.0000021
0
ARC
8
0
10
129.9148507
20
6.3079363
40
3
50
55.0000003
51
144.9999995
0
ARC
8
0
10
120.5034643
20
17.5035412
40
3
50
180
51
244.9999983
0
ARC
8
0
10
120.5034643
20
25.9224093
40
3
50
90
51
180
0
ARC
8
0
10
122.5034643
20
31.9224093
40
3
50
270
51
0
0
ARC
8
0
10
122.5034643
20
42.9224093
40
3
50
0
51
90
0
ARC
8
0
10
101.5034643
20
48.9224093
40
3
50
180
51
270
0
ARC
8
0
10
63.5034643
20
87.7557426
40
3
50
180
51
270
0
ARC
8
0
10
39.5034643
20
87.7557425
40
3
50
270
51
0
0
ARC
8
0
10
20.5034643
20
50.0794772
40
3
50
280.0000008
51
0
0
ARC
8
0
10
19.3287329
20
51.9031937
40
3
50
280.0000008
51
10.0000013
0
ARC
8
0
10
17.4186029
20
62.7360789
40
3
50
10.0000008
51
100.0000013
0
ARC
8
0
10
5.5936972
20
8.8642717
40
1
50
100.0000008
51
190.0000008
0
ARC
8
0
10
26.3504569
20
0.5634772
40
1
50
190.0000008
51
190.0000013
0
ARC
8
0
10
118.5034643
20
-4.7347799
40
1
50
64.9999983
51
180
0
ARC
8
0
10
128.2765466
20
7.4550892
40
1
50
144.9999995
51
145.0000003
0
ARC
8
0
10
80.5034643
20
82.9224093
40
1
50
180
51
270
0
ARC
8
0
10
41.5034643
20
66.7557425
40
1
50
0
51
90
0
ARC
8
0
10
21.2983484
20
52.2504901
40
1
50
10.0000008
51
10.0000013
0
ARC
8
0
10
17.0713065
20
64.7056944
40
1
50
100.0000008
51
100.0000013
0
ARC
8
0
10
61.5034643
20
66.7557426
40
1
50
90
51
180
0
ARC
8
0
10
74.5034643
20
66.7557426
40
1
50
0
51
90
0
ARC
8
0
10
48.5034643
20
72.4224092
40
1
50
180
51
270
0
ARC
8
0
10
54.5034643
20
72.4224092
40
1
50
270
51
0
0
ENDSEC
0
EOF